<?xml version="1.0" encoding="UTF-8"?>
<svg width="27px" height="27px" viewBox="0 0 27 27" version="1.1" xmlns="http://www.w3.org/2000/svg" xmlns:xlink="http://www.w3.org/1999/xlink">
    <!-- Generator: Sketch 48.2 (47327) - http://www.bohemiancoding.com/sketch -->
    <title>Shape</title>
    <desc>Created with Sketch.</desc>
    <defs></defs>
    <g id="Page-1" stroke="none" stroke-width="1" fill="none" fill-rule="evenodd">
        <g id="25231" fill="#FFFFFF" fill-rule="nonzero">
            <path d="M25.1890657,6.89221272 C23.9818582,4.77193968 22.3443584,3.09331655 20.2761352,1.85596469 C18.2076042,0.618549711 15.949385,0 13.4998769,0 C11.0506766,0 8.79171854,0.618739044 6.7236185,1.85596469 C4.65521063,3.09325344 3.01777237,4.77193968 1.81056491,6.89221272 C0.60354216,9.01242265 0,11.3277083 0,13.8380066 C0,16.8534443 0.858245201,19.5650032 2.57516657,21.9733774 C4.29190324,24.3819409 6.50967287,26.0485729 9.22829076,26.9734629 C9.54474559,27.0336706 9.77900836,26.9913232 9.93132533,26.8474935 C10.0837039,26.7034745 10.1598008,26.5231036 10.1598008,26.3071382 C10.1598008,26.2711019 10.156784,25.9469013 10.1509351,25.3341578 C10.1449016,24.7214143 10.1420695,24.1868652 10.1420695,23.7307629 L9.73775841,23.8024568 C9.47997701,23.8508629 9.15477966,23.8713739 8.76216634,23.8655677 C8.36973772,23.8599508 7.96234831,23.8177928 7.54055219,23.739409 C7.11857137,23.6617196 6.72608119,23.481538 6.3627738,23.199243 C5.99965112,22.9169481 5.74186972,22.5474339 5.58949118,22.0912685 L5.41371715,21.67663 C5.29655498,21.400583 5.11209998,21.0939273 4.8601059,20.7577987 C4.60811181,20.4213547 4.35328563,20.1932719 4.09550423,20.0731719 L3.97243163,19.9828603 C3.89042427,19.9228418 3.81432735,19.8504537 3.74395616,19.7664531 C3.67364655,19.6824525 3.62100669,19.5983888 3.58585188,19.5141989 C3.55063551,19.4299459 3.57981831,19.3608395 3.67370812,19.3066272 C3.76759793,19.252415 3.93727682,19.2260977 4.1834836,19.2260977 L4.53490854,19.2799313 C4.76929444,19.3280849 5.05921386,19.4719146 5.40503619,19.7123039 C5.75067382,19.9525039 6.03480593,20.2647766 6.25749408,20.6489956 C6.52715793,21.1416391 6.85204745,21.5170226 7.23308615,21.7753354 C7.61381702,22.0336482 7.99768781,22.1625838 8.38432912,22.1625838 C8.77097043,22.1625838 9.10491032,22.132543 9.38627191,22.072777 C9.66732566,22.0126954 9.9310175,21.9223838 10.1772243,21.8023469 C10.2826887,20.9971783 10.5698376,20.3786286 11.0384247,19.946256 C10.3705449,19.8743096 9.77008113,19.7659482 9.23672545,19.6218661 C8.70367761,19.4775946 8.15283687,19.2434532 7.58457266,18.9188109 C7.0160006,18.5946103 6.54433514,18.192026 6.16945315,17.7117522 C5.79450958,17.231226 5.48679728,16.6003697 5.24674721,15.8197512 C5.006574,15.0388172 4.88645661,14.1379726 4.88645661,13.1169648 C4.88645661,11.6632057 5.34944111,10.4261063 6.2752254,9.40497231 C5.84154684,8.31201813 5.88248895,7.08678355 6.39817488,5.7293948 C6.7380252,5.62115964 7.24201338,5.70238334 7.90989315,5.97256101 C8.57789605,6.2428649 9.06698499,6.47441871 9.37765252,6.666402 C9.68832004,6.85832218 9.93723577,7.02095891 10.1247691,7.15286064 C11.2148144,6.84065113 12.3397067,6.68451482 13.4997537,6.68451482 C14.6598008,6.68451482 15.7849393,6.84065113 16.8750462,7.15286064 L17.5429875,6.72061424 C17.9997537,6.43219753 18.539143,6.16788918 19.1598624,5.92762607 C19.7809511,5.68748918 20.2558797,5.62134898 20.5841554,5.72958413 C21.1112928,7.087036 21.1582685,8.31220746 20.7244668,9.40516164 C21.6501895,10.4262956 22.1133587,11.6637106 22.1133587,13.1171541 C22.1133587,14.1381619 21.9928103,15.0418466 21.7530065,15.8287761 C21.5128949,16.6158318 21.2025352,17.2460571 20.8218043,17.7207771 C20.4406425,18.195434 19.9659602,18.5948627 19.397696,18.9190002 C18.8293087,19.2433901 18.2782832,19.4775315 17.7452354,19.6218029 C17.2119413,19.7660744 16.6114775,19.8744989 15.9435977,19.9465715 C16.5527425,20.4869269 16.8573764,21.3398704 16.8573764,22.5050234 L16.8573764,26.3066333 C16.8573764,26.5225987 16.9306413,26.7029065 17.0772941,26.8469887 C17.2237622,26.9908183 17.4550697,27.0331657 17.7715245,26.9728949 C20.4905118,26.0481312 22.7082815,24.381436 24.4249566,21.9728725 C26.141447,19.5644983 27,16.8529394 27,13.8375017 C26.9993843,11.327519 26.3955343,9.01242265 25.1890657,6.89221272 Z" id="Shape"></path>
        </g>
    </g>
</svg>