<?xml version="1.0" encoding="UTF-8"?>
<svg width="27px" height="27px" viewBox="0 0 27 27" version="1.1" xmlns="http://www.w3.org/2000/svg" xmlns:xlink="http://www.w3.org/1999/xlink">
    <!-- Generator: Sketch 48.2 (47327) - http://www.bohemiancoding.com/sketch -->
    <title>Shape</title>
    <desc>Created with Sketch.</desc>
    <defs></defs>
    <g id="Page-1" stroke="none" stroke-width="1" fill="none" fill-rule="evenodd">
        <g id="mailbox-8" fill="#FFFFFF" fill-rule="nonzero">
            <path d="M21.8090072,5.05427344 L14.5572086,4.32094922 L14.5572086,0.629542969 L8.34138129,0 L8.34138129,2.53457227 L12.4852662,2.9548125 L12.4852662,8.4375 L10.4133237,8.4375 L10.4133237,6.75822656 L10.4133237,3.89907422 L6.39893525,3.49365234 C6.02054676,3.42441211 5.63406475,3.375 5.23346763,3.375 C2.7467482,3.375 0.593870504,4.782375 0.0536115108,6.75822656 L0.0536115108,15.1957266 L8.34138129,16.0345195 L8.34138129,27 L12.4852662,27 L12.4852662,16.4547598 L16.6291511,16.875 L18.7010935,16.875 L18.7010935,21.9375 C18.7010935,23.3349609 20.0931799,24.46875 21.8090072,24.46875 C23.5248345,24.46875 24.9169209,23.3349609 24.9169209,21.9375 L24.9169209,16.875 L26.9888633,16.875 L26.9888633,8.4375 C26.4486043,6.45996094 24.2957266,5.05427344 21.8090072,5.05427344 Z M24.9169209,15.1875 L18.7010935,15.1875 L18.7010935,8.64516797 C19.0976763,7.51633594 20.3501655,6.74177344 21.8090072,6.74177344 C23.2678489,6.74177344 24.5203381,7.51633594 24.9169209,8.64516797 L24.9169209,15.1875 Z" id="Shape"></path>
        </g>
    </g>
</svg>